<svg xmlns="http://www.w3.org/2000/svg" viewBox="0 0 900 1200" role="img" aria-labelledby="title desc">
  <title id="title">Zonas frecuentes de tensión al cantar</title>
  <desc id="desc">Torso simplificado con hombros, cuello, pecho alto y abdomen marcados como zonas de tensión.</desc>
  <rect width="900" height="1200" fill="#ede5d0"/>
  <rect x="56" y="56" width="788" height="1088" rx="36" fill="#f7f1e8" stroke="#c8973a" stroke-width="4"/>
  <path d="M450 162C392 162 350 212 334 266L292 404C272 472 266 546 276 620L302 810C314 888 380 944 458 944C536 944 602 888 614 810L640 620C650 546 644 472 624 404L582 266C566 212 524 162 466 162Z" fill="#dfcfbc" stroke="#3b2e1a" stroke-width="5"/>
  <path d="M450 180V944" fill="none" stroke="#6b5540" stroke-width="8" stroke-linecap="round"/>
  <g fill="#b93b44" opacity=".9">
    <ellipse cx="366" cy="238" rx="82" ry="54"/>
    <ellipse cx="534" cy="238" rx="82" ry="54"/>
    <rect x="404" y="210" width="92" height="112" rx="40"/>
    <ellipse cx="450" cy="408" rx="160" ry="88"/>
    <ellipse cx="450" cy="730" rx="140" ry="88"/>
  </g>
  <g stroke="#7a1f2e" stroke-width="4" stroke-dasharray="10 10" fill="none">
    <ellipse cx="366" cy="238" rx="82" ry="54"/>
    <ellipse cx="534" cy="238" rx="82" ry="54"/>
    <rect x="404" y="210" width="92" height="112" rx="40"/>
    <ellipse cx="450" cy="408" rx="160" ry="88"/>
    <ellipse cx="450" cy="730" rx="140" ry="88"/>
  </g>
  <g font-family="Georgia, serif">
    <rect x="88" y="152" width="240" height="80" rx="18" fill="#f5f0e8" stroke="#c8973a" stroke-width="3"/>
    <text x="208" y="198" text-anchor="middle" font-size="29" fill="#18120a">Hombros altos</text>
    <path d="M328 192H292" fill="none" stroke="#7a1f2e" stroke-width="4"/>
    <polygon points="292,192 308,182 308,202" fill="#7a1f2e"/>
    <rect x="582" y="256" width="224" height="84" rx="18" fill="#f5f0e8" stroke="#c8973a" stroke-width="3"/>
    <text x="694" y="302" text-anchor="middle" font-size="29" fill="#18120a">Cuello tenso</text>
    <path d="M582 296H514" fill="none" stroke="#7a1f2e" stroke-width="4"/>
    <polygon points="514,296 530,286 530,306" fill="#7a1f2e"/>
    <rect x="92" y="378" width="220" height="84" rx="18" fill="#f5f0e8" stroke="#c8973a" stroke-width="3"/>
    <text x="202" y="424" text-anchor="middle" font-size="29" fill="#18120a">Pecho inflado</text>
    <path d="M312 418H350" fill="none" stroke="#7a1f2e" stroke-width="4"/>
    <polygon points="350,418 334,408 334,428" fill="#7a1f2e"/>
    <rect x="566" y="686" width="240" height="96" rx="18" fill="#f5f0e8" stroke="#c8973a" stroke-width="3"/>
    <text x="686" y="724" text-anchor="middle" font-size="29" fill="#18120a">Abdomen rígido</text>
    <text x="686" y="760" text-anchor="middle" font-size="22" fill="#6b5540">bloquea el apoyo</text>
    <path d="M566 734H516" fill="none" stroke="#7a1f2e" stroke-width="4"/>
    <polygon points="516,734 532,724 532,744" fill="#7a1f2e"/>
  </g>
</svg>
